<?xml version="1.0" encoding="UTF-8"?>
<svg enable-background="new 0 0 2374.308 1674.675" version="1.1" viewBox="0 0 2374.308 1674.675" xmlns="http://www.w3.org/2000/svg">
 <path d="m1806.2 1635.8c-5.36-0.012-10.736-0.065-16.092-0.065-56.326-11.384-92.734-37.003-118.91-80.272-26.176-43.838 5.689-102.48 22.188-158.84 11.386-36.436-21.049-66.042-43.238-91.66-21.619-26.19 44.953-54.656 26.177-69.458-17.638-14.233-36.978-23.342-40.397-46.116-3.411-26.757 30.719-40.99 31.289-70.026 3.418-17.65 18.778-41.561 7.399-55.794-15.929-19.359-42.099-13.663-65.995-21.635-25.037-15.373-76.812-30.744-68.844-74.581 13.081-72.874 165-224.88 230.99-327.93-14.227-31.314-18.208-61.488-14.227-91.662 31.358-235.31 222.83-464.32 564.82-504.28-0.419-0.044-0.835-0.094-1.254-0.138-480.39-50.177-747.59 222.6-785.15 504.42-3.981 30.174 0 60.348 14.227 91.662-65.995 103.05-217.91 255.06-230.99 327.93-7.968 43.837 43.807 59.208 68.844 74.581 23.897 7.971 50.066 2.276 65.995 21.635 11.379 14.233-3.981 38.144-7.399 55.794-0.57 29.035-34.699 43.269-31.289 70.026 3.418 22.774 22.758 31.883 40.396 46.116 18.777 14.801-47.795 43.268-26.176 69.458 22.189 25.619 54.624 55.224 43.238 91.66-16.499 56.363-48.364 115-22.189 158.84 26.176 43.269 62.584 68.887 118.91 80.272 78.721 0 157.9 1.31 237.13 1.604 0.192-0.511 0.353-1.032 0.547-1.54z"/>
 <path d="m568.1 1635.8c5.36-0.012 10.736-0.065 16.092-0.065 56.326-11.384 92.734-37.003 118.91-80.272 26.176-43.838-5.689-102.48-22.188-158.84-11.386-36.436 21.049-66.042 43.238-91.66 21.619-26.19-44.954-54.656-26.177-69.458 17.638-14.233 36.978-23.342 40.397-46.116 3.411-26.757-30.719-40.99-31.289-70.026-3.418-17.65-18.778-41.561-7.399-55.794 15.929-19.359 42.098-13.663 65.995-21.635 25.037-15.373 76.812-30.744 68.844-74.581-13.081-72.874-165-224.88-230.99-327.93 14.227-31.314 18.208-61.488 14.227-91.662-31.357-235.31-222.83-464.32-564.82-504.28 0.419-0.044 0.835-0.094 1.254-0.138 480.39-50.177 747.59 222.6 785.15 504.42 3.981 30.174 0 60.348-14.227 91.662 65.995 103.05 217.91 255.06 230.99 327.93 7.968 43.837-43.807 59.208-68.844 74.581-23.897 7.971-50.066 2.276-65.995 21.635-11.379 14.233 3.981 38.144 7.399 55.794 0.57 29.035 34.7 43.269 31.289 70.026-3.418 22.774-22.758 31.883-40.396 46.116-18.777 14.801 47.795 43.268 26.176 69.458-22.189 25.619-54.624 55.224-43.238 91.66 16.499 56.363 48.365 115 22.189 158.84-26.176 43.269-62.584 68.887-118.91 80.272-78.721 0-157.9 1.31-237.13 1.604-0.192-0.511-0.353-1.032-0.547-1.54z"/>
</svg>
